<svg width="40" height="40" viewBox="0 0 40 40" fill="none" xmlns="http://www.w3.org/2000/svg">
<path d="M6 25C6 23.8954 6.89543 23 8 23H33C34.1046 23 35 23.8954 35 25V28C35 29.1046 34.1046 30 33 30H8C6.89543 30 6 29.1046 6 28V25Z" fill="black" stroke="white" stroke-miterlimit="2.13005"/>
<path d="M31.5287 29.8516L8.47126 29.3786H7.29885C6.07788 28.7922 5.39338 28.9625 4.17241 29.3786C3.35512 29.8153 3.12355 30.2505 3 31.2704C3.20135 32.595 3.09072 33.0974 3 34.1082C3.19801 33.4705 3.90105 33.394 4.95402 33.1623C7.74798 34.172 9.26789 34.4689 11.9885 35.0541C16.1827 34.2851 16.4205 33.2201 16.6782 31.2704H22.931C24.5235 34.7534 25.608 35.3949 27.6207 36C29.6237 35.6504 30.7338 35.317 32.7011 34.5811C34.6308 34.299 35.7446 34.0814 37 35.0541V31.2704C35.9435 29.5335 34.6805 29.2935 31.5287 29.8516Z" fill="black" stroke="white" stroke-width="0.7"/>
<path d="M4.12558 34.4955C4.19922 34.5614 4.28222 34.616 4.35923 34.6778C4.66893 34.9266 5.51205 35.5862 5.7441 35.5844C6.01528 35.5823 5.68853 34.1561 5.7333 34.0837C5.20671 34.0493 5.08309 33.9136 4.2441 34.0844C3.87442 34.1983 4.0024 34.3854 4.12558 34.4955Z" fill="black"/>
<path d="M4.12558 34.4955C4.19922 34.5614 4.28222 34.616 4.35923 34.6778C4.66893 34.9266 5.51205 35.5862 5.7441 35.5844C6.01528 35.5823 5.68853 34.1561 5.7333 34.0837C5.20671 34.0493 5.08309 33.9136 4.2441 34.0844C3.87442 34.1983 4.0024 34.3854 4.12558 34.4955Z" fill="black"/>
<path d="M5.7333 34.0837C5.68853 34.1561 6.01528 35.5823 5.7441 35.5844C5.51205 35.5862 4.66893 34.9266 4.35923 34.6778C4.28222 34.616 4.19922 34.5614 4.12558 34.4955C4.0024 34.3854 3.87442 34.1983 4.2441 34.0844C5.08309 33.9136 5.20671 34.0493 5.7333 34.0837ZM5.7333 34.0837C5.73574 34.0797 5.73929 34.0798 5.7441 34.0844C5.74048 34.0842 5.73688 34.0839 5.7333 34.0837ZM5.7441 35.5844C5.51205 35.5862 4.66893 34.9266 4.35923 34.6778C4.28222 34.616 4.19922 34.5614 4.12558 34.4955C4.0024 34.3854 3.87442 34.1983 4.2441 34.0844C5.08309 33.9136 5.20671 34.0493 5.7333 34.0837C5.68853 34.1561 6.01528 35.5823 5.7441 35.5844Z" stroke="white" stroke-width="0.3"/>
<path d="M35.7273 35.4955C35.6537 35.5614 35.5707 35.616 35.4937 35.6778C35.184 35.9266 34.3408 36.5862 34.1088 36.5844C33.8376 36.5823 34.1644 35.1561 34.1196 35.0837C34.6462 35.0493 34.7698 34.9136 35.6088 35.0844C35.9785 35.1983 35.8505 35.3854 35.7273 35.4955Z" fill="black"/>
<path d="M35.7273 35.4955C35.6537 35.5614 35.5707 35.616 35.4937 35.6778C35.184 35.9266 34.3408 36.5862 34.1088 36.5844C33.8376 36.5823 34.1644 35.1561 34.1196 35.0837C34.6462 35.0493 34.7698 34.9136 35.6088 35.0844C35.9785 35.1983 35.8505 35.3854 35.7273 35.4955Z" fill="black"/>
<path d="M34.1196 35.0837C34.1644 35.1561 33.8376 36.5823 34.1088 36.5844C34.3408 36.5862 35.184 35.9266 35.4937 35.6778C35.5707 35.616 35.6537 35.5614 35.7273 35.4955C35.8505 35.3854 35.9785 35.1983 35.6088 35.0844C34.7698 34.9136 34.6462 35.0493 34.1196 35.0837ZM34.1196 35.0837C34.1171 35.0797 34.1136 35.0798 34.1088 35.0844C34.1124 35.0842 34.116 35.0839 34.1196 35.0837ZM34.1088 36.5844C34.3408 36.5862 35.184 35.9266 35.4937 35.6778C35.5707 35.616 35.6537 35.5614 35.7273 35.4955C35.8505 35.3854 35.9785 35.1983 35.6088 35.0844C34.7698 34.9136 34.6462 35.0493 34.1196 35.0837C34.1644 35.1561 33.8376 36.5823 34.1088 36.5844Z" stroke="white" stroke-width="0.3"/>
<path d="M1.02303 39.0918V36.5918C0.953038 35.9895 1.66049 35.8969 4.02303 36.0918C4.92127 36.5895 5.35745 36.6909 6.02303 36.5918C8.13488 38.64 7.25128 38.9301 6.02303 39.5918C2.19995 39.504 0.798304 39.4121 1.02303 39.0918Z" fill="black" stroke="white" stroke-width="0.7"/>
<path d="M39.2737 39.0918V36.5918C39.3437 35.9895 38.6363 35.8969 36.2737 36.0918C35.3755 36.5895 34.9393 36.6909 34.2737 36.5918C32.1619 38.64 33.0455 38.9301 34.2737 39.5918C38.0968 39.504 39.4985 39.4121 39.2737 39.0918Z" fill="black" stroke="white" stroke-width="0.7"/>
<mask id="path-9-inside-1_11_42" fill="white">
<path d="M19.9999 0.999603C23.2179 0.999603 26.1614 2.03627 28.4316 3.7496C27.4214 4.2428 26.3566 4.81148 25.2734 5.44785C20.1518 8.4565 16.5326 11.8016 17.1894 12.9195C17.8462 14.0375 22.5307 12.5053 27.6523 9.49667C29.0419 8.68033 30.3185 7.83578 31.4316 7.02109C32.4313 8.64993 32.9998 10.5159 32.9999 12.4996C32.9999 18.8509 27.1796 23.9996 19.9999 23.9996C12.8203 23.9996 6.99992 18.8509 6.99992 12.4996C7.00017 6.14853 12.8204 0.99964 19.9999 0.999603Z"/>
</mask>
<path d="M19.9999 0.999603C23.2179 0.999603 26.1614 2.03627 28.4316 3.7496C27.4214 4.2428 26.3566 4.81148 25.2734 5.44785C20.1518 8.4565 16.5326 11.8016 17.1894 12.9195C17.8462 14.0375 22.5307 12.5053 27.6523 9.49667C29.0419 8.68033 30.3185 7.83578 31.4316 7.02109C32.4313 8.64993 32.9998 10.5159 32.9999 12.4996C32.9999 18.8509 27.1796 23.9996 19.9999 23.9996C12.8203 23.9996 6.99992 18.8509 6.99992 12.4996C7.00017 6.14853 12.8204 0.99964 19.9999 0.999603Z" fill="black"/>
<path d="M19.9999 0.999603L19.9999 -0.000396729L19.9999 -0.000396729L19.9999 0.999603ZM28.4316 3.7496L28.8703 4.64822L30.3348 3.9332L29.034 2.95142L28.4316 3.7496ZM25.2734 5.44785L24.7668 4.58561L24.7668 4.58562L25.2734 5.44785ZM17.1894 12.9195L16.3271 13.426L16.3272 13.4261L17.1894 12.9195ZM27.6523 9.49667L28.1588 10.3589L28.1588 10.3589L27.6523 9.49667ZM31.4316 7.02109L32.2838 6.49799L31.7163 5.57339L30.8409 6.21415L31.4316 7.02109ZM32.9999 12.4996L33.9999 12.4996L33.9999 12.4996L32.9999 12.4996ZM19.9999 23.9996L19.9999 24.9996H19.9999V23.9996ZM6.99992 12.4996L5.99992 12.4996V12.4996H6.99992ZM19.9999 0.999603V1.9996C23.0032 1.9996 25.7347 2.96704 27.8292 4.54779L28.4316 3.7496L29.034 2.95142C26.5882 1.10551 23.4326 -0.000396729 19.9999 -0.000396729V0.999603ZM28.4316 3.7496L27.9928 2.85098C26.9596 3.35543 25.8722 3.93625 24.7668 4.58561L25.2734 5.44785L25.7799 6.31008C26.841 5.6867 27.8832 5.13016 28.8703 4.64822L28.4316 3.7496ZM25.2734 5.44785L24.7668 4.58562C22.1633 6.11506 19.9154 7.74455 18.3858 9.15833C17.6271 9.85955 17.0041 10.545 16.6097 11.1696C16.4133 11.4807 16.2433 11.8236 16.1626 12.1808C16.0806 12.5445 16.0768 12.9999 16.3271 13.426L17.1894 12.9195L18.0516 12.413C18.1378 12.5596 18.1034 12.666 18.1136 12.621C18.1252 12.5696 18.1702 12.4442 18.3008 12.2374C18.5603 11.8264 19.0391 11.2779 19.7433 10.6271C21.1394 9.33666 23.2619 7.78928 25.7799 6.31007L25.2734 5.44785ZM17.1894 12.9195L16.3272 13.4261C16.5775 13.8522 16.9772 14.0706 17.3348 14.176C17.686 14.2795 18.0683 14.298 18.4357 14.2779C19.1733 14.2376 20.0754 14.0272 21.0574 13.706C23.0372 13.0584 25.5552 11.8884 28.1588 10.3589L27.6523 9.49667L27.1458 8.63444C24.6277 10.1136 22.2426 11.214 20.4356 11.8051C19.5242 12.1033 18.812 12.2544 18.3265 12.2809C18.0823 12.2943 17.9508 12.2725 17.9001 12.2576C17.8558 12.2446 17.9654 12.2664 18.0516 12.413L17.1894 12.9195ZM27.6523 9.49667L28.1588 10.3589C29.5769 9.52585 30.8816 8.66288 32.0222 7.82803L31.4316 7.02109L30.8409 6.21415C29.7554 7.00867 28.5069 7.83481 27.1457 8.63444L27.6523 9.49667ZM31.4316 7.02109L30.5793 7.54419C31.4882 9.02509 31.9999 10.7113 31.9999 12.4996L32.9999 12.4996L33.9999 12.4996C33.9998 10.3204 33.3744 8.27477 32.2838 6.49799L31.4316 7.02109ZM32.9999 12.4996H31.9999C31.9999 18.1869 26.7461 22.9996 19.9999 22.9996V23.9996V24.9996C27.6132 24.9996 33.9999 19.5149 33.9999 12.4996H32.9999ZM19.9999 23.9996L19.9999 22.9996C13.2538 22.9996 7.99992 18.1869 7.99992 12.4996H6.99992H5.99992C5.99992 19.5149 12.3867 24.9996 19.9999 24.9996L19.9999 23.9996ZM6.99992 12.4996L7.99992 12.4996C8.00014 6.8125 13.254 1.99964 19.9999 1.9996L19.9999 0.999603L19.9999 -0.000396729C12.3868 -0.000358052 6.00019 5.48456 5.99992 12.4996L6.99992 12.4996Z" fill="white" mask="url(#path-9-inside-1_11_42)"/>
<circle cx="11.5" cy="2.5" r="1.35" fill="black" stroke="white" stroke-width="0.3"/>
</svg>
