<svg width="40" height="40" viewBox="0 0 40 40" fill="none" xmlns="http://www.w3.org/2000/svg">
<mask id="path-1-inside-1_32_36" fill="white">
<path d="M22.0019 3.26831C22.9191 3.36244 24.4321 4.5041 25.1601 5.11792L24.5214 6.11792C23.9945 5.67359 22.5399 4.78567 21.8759 4.71753C21.2121 4.64951 20.5441 4.7888 19.9502 5.11792C19.3561 5.44718 18.8595 5.95297 18.5205 6.57691C18.1815 7.20084 18.0135 7.9172 18.0351 8.64136C18.0568 9.36561 18.2679 10.0689 18.6435 10.6677C19.0191 11.2663 19.5439 11.7366 20.1562 12.0232C20.7686 12.3098 21.4441 12.4016 22.1025 12.2869C22.7608 12.172 23.6764 11.367 24.1757 10.8865L25.1601 11.4871C24.4703 12.151 23.224 13.5658 22.3144 13.7244C22.1938 13.7454 22.0723 13.7602 21.9511 13.7712V15.3201C24.2583 11.7658 27.4048 9.88321 30.2861 10.7849C34.6307 12.1451 36.725 19.3192 34.9638 26.8084C33.2022 34.2979 28.2512 39.267 23.9062 37.907C22.7683 37.5506 21.7866 36.7941 20.9863 35.739C20.1859 36.7941 19.2054 37.5517 18.0673 37.908C13.7226 39.2673 8.77221 34.2985 7.0107 26.8093C5.24924 19.32 7.34378 12.1462 11.6884 10.7859C14.5703 9.88381 17.7165 11.7674 20.0234 15.323V13.5212C19.8895 13.4731 19.7561 13.421 19.6259 13.3601C18.7798 12.964 18.055 12.3142 17.5361 11.4871C17.0173 10.66 16.7253 9.68957 16.6953 8.68921C16.6654 7.68871 16.8988 6.69868 17.3671 5.83667C17.8355 4.97492 18.5203 4.27586 19.3408 3.82105C20.1614 3.36628 21.0848 3.17429 22.0019 3.26831ZM18.3056 21.8113C17.4124 17.8076 14.7206 15.1457 12.2939 15.866C9.86736 16.5867 8.62346 20.417 9.51656 24.4207C10.4097 28.4242 13.1016 31.0859 15.5283 30.366C17.9551 29.6455 19.1989 25.8152 18.3056 21.8113ZM29.6806 15.866C27.2541 15.146 24.5633 17.8072 23.6699 21.8103C22.7767 25.814 24.0196 29.6442 26.4463 30.365C28.8731 31.0855 31.5647 28.4236 32.458 24.4197C33.3509 20.4161 32.1073 16.5865 29.6806 15.866Z"/>
</mask>
<path d="M22.0019 3.26831C22.9191 3.36244 24.4321 4.5041 25.1601 5.11792L24.5214 6.11792C23.9945 5.67359 22.5399 4.78567 21.8759 4.71753C21.2121 4.64951 20.5441 4.7888 19.9502 5.11792C19.3561 5.44718 18.8595 5.95297 18.5205 6.57691C18.1815 7.20084 18.0135 7.9172 18.0351 8.64136C18.0568 9.36561 18.2679 10.0689 18.6435 10.6677C19.0191 11.2663 19.5439 11.7366 20.1562 12.0232C20.7686 12.3098 21.4441 12.4016 22.1025 12.2869C22.7608 12.172 23.6764 11.367 24.1757 10.8865L25.1601 11.4871C24.4703 12.151 23.224 13.5658 22.3144 13.7244C22.1938 13.7454 22.0723 13.7602 21.9511 13.7712V15.3201C24.2583 11.7658 27.4048 9.88321 30.2861 10.7849C34.6307 12.1451 36.725 19.3192 34.9638 26.8084C33.2022 34.2979 28.2512 39.267 23.9062 37.907C22.7683 37.5506 21.7866 36.7941 20.9863 35.739C20.1859 36.7941 19.2054 37.5517 18.0673 37.908C13.7226 39.2673 8.77221 34.2985 7.0107 26.8093C5.24924 19.32 7.34378 12.1462 11.6884 10.7859C14.5703 9.88381 17.7165 11.7674 20.0234 15.323V13.5212C19.8895 13.4731 19.7561 13.421 19.6259 13.3601C18.7798 12.964 18.055 12.3142 17.5361 11.4871C17.0173 10.66 16.7253 9.68957 16.6953 8.68921C16.6654 7.68871 16.8988 6.69868 17.3671 5.83667C17.8355 4.97492 18.5203 4.27586 19.3408 3.82105C20.1614 3.36628 21.0848 3.17429 22.0019 3.26831ZM18.3056 21.8113C17.4124 17.8076 14.7206 15.1457 12.2939 15.866C9.86736 16.5867 8.62346 20.417 9.51656 24.4207C10.4097 28.4242 13.1016 31.0859 15.5283 30.366C17.9551 29.6455 19.1989 25.8152 18.3056 21.8113ZM29.6806 15.866C27.2541 15.146 24.5633 17.8072 23.6699 21.8103C22.7767 25.814 24.0196 29.6442 26.4463 30.365C28.8731 31.0855 31.5647 28.4236 32.458 24.4197C33.3509 20.4161 32.1073 16.5865 29.6806 15.866Z" fill="black"/>
<path d="M22.0019 3.26831L22.0428 2.8704L22.0427 2.8704L22.0019 3.26831ZM25.1601 5.11792L25.4972 5.33323L25.6858 5.03796L25.418 4.81212L25.1601 5.11792ZM24.5214 6.11792L24.2636 6.42373L24.6127 6.71811L24.8586 6.33323L24.5214 6.11792ZM21.8759 4.71753L21.9168 4.31962L21.9167 4.31961L21.8759 4.71753ZM19.9502 5.11792L19.7563 4.76804L19.7562 4.76807L19.9502 5.11792ZM18.5205 6.57691L18.169 6.38592L18.169 6.38594L18.5205 6.57691ZM18.0351 8.64136L17.6353 8.65328L17.6353 8.65332L18.0351 8.64136ZM18.6435 10.6677L18.3047 10.8803L18.3047 10.8803L18.6435 10.6677ZM20.1562 12.0232L19.9866 12.3855L19.9867 12.3855L20.1562 12.0232ZM22.1025 12.2869L22.1711 12.6809L22.1713 12.6809L22.1025 12.2869ZM24.1757 10.8865L24.3841 10.545L24.1207 10.3843L23.8984 10.5982L24.1757 10.8865ZM25.1601 11.4871L25.4375 11.7753L25.8111 11.4157L25.3685 11.1456L25.1601 11.4871ZM22.3144 13.7244L22.3831 14.1184L22.3831 14.1184L22.3144 13.7244ZM21.9511 13.7712L21.9148 13.3729L21.5511 13.406V13.7712H21.9511ZM21.9511 15.3201H21.5511V16.671L22.2866 15.5379L21.9511 15.3201ZM30.2861 10.7849L30.4056 10.4032L30.4056 10.4032L30.2861 10.7849ZM34.9638 26.8084L35.3532 26.8999L35.3532 26.8999L34.9638 26.8084ZM23.9062 37.907L23.7867 38.2887L23.7867 38.2887L23.9062 37.907ZM20.9863 35.739L21.305 35.4973L20.9863 35.0771L20.6676 35.4973L20.9863 35.739ZM18.0673 37.908L18.1868 38.2897L18.1868 38.2897L18.0673 37.908ZM7.0107 26.8093L6.62133 26.9009L6.62133 26.9009L7.0107 26.8093ZM11.6884 10.7859L11.5689 10.4042L11.5689 10.4042L11.6884 10.7859ZM20.0234 15.323L19.6878 15.5407L20.4234 16.6744V15.323H20.0234ZM20.0234 13.5212H20.4234V13.2399L20.1586 13.1448L20.0234 13.5212ZM19.6259 13.3601L19.4564 13.7224L19.4564 13.7224L19.6259 13.3601ZM17.5361 11.4871L17.1972 11.6996L17.1972 11.6996L17.5361 11.4871ZM16.6953 8.68921L16.2955 8.70115L16.2955 8.7012L16.6953 8.68921ZM17.3671 5.83667L17.0157 5.64567L17.0157 5.6457L17.3671 5.83667ZM19.3408 3.82105L19.1469 3.47118L19.1468 3.4712L19.3408 3.82105ZM18.3056 21.8113L18.696 21.7242L18.696 21.7242L18.3056 21.8113ZM12.2939 15.866L12.1801 15.4825L12.18 15.4825L12.2939 15.866ZM9.51656 24.4207L9.12616 24.5077L9.12616 24.5078L9.51656 24.4207ZM15.5283 30.366L15.642 30.7494L15.6421 30.7494L15.5283 30.366ZM29.6806 15.866L29.7945 15.4825L29.7944 15.4825L29.6806 15.866ZM23.6699 21.8103L23.2795 21.7232L23.2795 21.7232L23.6699 21.8103ZM26.4463 30.365L26.3324 30.7484L26.3324 30.7484L26.4463 30.365ZM32.458 24.4197L32.8484 24.5068L32.8484 24.5067L32.458 24.4197ZM22.0019 3.26831L21.9611 3.66622C22.3159 3.70264 22.8523 3.96114 23.4363 4.33509C24.001 4.69674 24.5469 5.12408 24.9023 5.42372L25.1601 5.11792L25.418 4.81212C25.0454 4.49794 24.4707 4.04754 23.8677 3.66138C23.2839 3.28751 22.6051 2.92812 22.0428 2.8704L22.0019 3.26831ZM25.1601 5.11792L24.823 4.90262L24.1843 5.90262L24.5214 6.11792L24.8586 6.33323L25.4972 5.33323L25.1601 5.11792ZM24.5214 6.11792L24.7793 5.81212C24.4895 5.56781 23.9705 5.22067 23.445 4.92737C23.1801 4.77954 22.9057 4.64093 22.65 4.53371C22.4015 4.42953 22.1424 4.34278 21.9168 4.31962L21.8759 4.71753L21.8351 5.11544C21.9415 5.12636 22.1132 5.17614 22.3407 5.2715C22.5609 5.36381 22.8075 5.48774 23.0551 5.62594C23.5546 5.90472 24.0264 6.22371 24.2636 6.42373L24.5214 6.11792ZM21.8759 4.71753L21.9167 4.31961C21.1698 4.24308 20.4202 4.40019 19.7563 4.76804L19.9502 5.11792L20.144 5.4678C20.6681 5.17741 21.2544 5.05593 21.8352 5.11545L21.8759 4.71753ZM19.9502 5.11792L19.7562 4.76807C19.0929 5.13575 18.5429 5.69794 18.169 6.38592L18.5205 6.57691L18.8719 6.7679C19.1762 6.208 19.6193 5.75862 20.1441 5.46777L19.9502 5.11792ZM18.5205 6.57691L18.169 6.38594C17.7954 7.07358 17.6116 7.86018 17.6353 8.65328L18.0351 8.64136L18.4349 8.62943C18.4154 7.97422 18.5676 7.32809 18.8719 6.76787L18.5205 6.57691ZM18.0351 8.64136L17.6353 8.65332C17.659 9.44678 17.8903 10.2197 18.3047 10.8803L18.6435 10.6677L18.9824 10.4552C18.6456 9.91822 18.4545 9.28445 18.4349 8.6294L18.0351 8.64136ZM18.6435 10.6677L18.3047 10.8803C18.7192 11.5409 19.3014 12.0647 19.9866 12.3855L20.1562 12.0232L20.3258 11.6609C19.7863 11.4084 19.319 10.9917 18.9823 10.4551L18.6435 10.6677ZM20.1562 12.0232L19.9867 12.3855C20.6723 12.7063 21.4308 12.8099 22.1711 12.6809L22.1025 12.2869L22.0339 11.8928C21.4574 11.9932 20.865 11.9133 20.3258 11.6609L20.1562 12.0232ZM22.1025 12.2869L22.1713 12.6809C22.599 12.6063 23.0569 12.3255 23.4362 12.0456C23.8297 11.7553 24.1975 11.4206 24.4531 11.1747L24.1757 10.8865L23.8984 10.5982C23.6546 10.8328 23.315 11.1409 22.9612 11.4019C22.5933 11.6734 22.2643 11.8526 22.0337 11.8928L22.1025 12.2869ZM24.1757 10.8865L23.9674 11.2279L24.9518 11.8285L25.1601 11.4871L25.3685 11.1456L24.3841 10.545L24.1757 10.8865ZM25.1601 11.4871L24.8827 11.1989C24.5111 11.5566 24.0616 12.0432 23.5533 12.4968C23.3054 12.7181 23.06 12.9157 22.8285 13.0654C22.5926 13.218 22.3968 13.304 22.2457 13.3303L22.3144 13.7244L22.3831 14.1184C22.6868 14.0655 22.9879 13.9151 23.2631 13.7371C23.5427 13.5562 23.8224 13.3289 24.086 13.0937C24.6008 12.6343 25.1193 12.0815 25.4375 11.7753L25.1601 11.4871ZM22.3144 13.7244L22.2458 13.3303C22.1384 13.349 22.028 13.3626 21.9148 13.3729L21.9511 13.7712L21.9874 14.1696C22.1166 14.1578 22.2492 14.1417 22.3831 14.1184L22.3144 13.7244ZM21.9511 13.7712H21.5511V15.3201H21.9511H22.3511V13.7712H21.9511ZM21.9511 15.3201L22.2866 15.5379C24.562 12.0326 27.5495 10.3476 30.1666 11.1667L30.2861 10.7849L30.4056 10.4032C27.26 9.41879 23.9546 11.4989 21.6156 15.1023L21.9511 15.3201ZM30.2861 10.7849L30.1666 11.1666C32.1571 11.7898 33.7023 13.773 34.5307 16.6104C35.3553 19.435 35.4415 23.03 34.5745 26.7168L34.9638 26.8084L35.3532 26.8999C36.2474 23.0976 36.167 19.3609 35.2986 16.3862C34.4339 13.4242 32.7597 11.1402 30.4056 10.4032L30.2861 10.7849ZM34.9638 26.8084L34.5745 26.7168C33.707 30.4048 32.059 33.4482 30.1204 35.394C28.1774 37.3442 26.0017 38.1437 24.0257 37.5252L23.9062 37.907L23.7867 38.2887C26.1557 39.0302 28.628 38.0253 30.6871 35.9586C32.7507 33.8874 34.4591 30.7015 35.3532 26.8999L34.9638 26.8084ZM23.9062 37.907L24.0258 37.5253C22.9827 37.1986 22.0659 36.5004 21.305 35.4973L20.9863 35.739L20.6676 35.9807C21.5073 37.0878 22.5539 37.9027 23.7867 38.2887L23.9062 37.907ZM20.9863 35.739L20.6676 35.4973C19.9064 36.5008 18.9907 37.1998 17.9479 37.5262L18.0673 37.908L18.1868 38.2897C19.4201 37.9037 20.4654 37.0875 21.305 35.9808L20.9863 35.739ZM18.0673 37.908L17.9479 37.5262C15.972 38.1444 13.7965 37.3447 11.8537 35.3945C9.91528 33.4488 8.26749 30.4056 7.40008 26.7177L7.0107 26.8093L6.62133 26.9009C7.51543 30.7023 9.22356 33.888 11.2869 35.9591C13.3458 38.0258 15.8179 39.0308 18.1868 38.2897L18.0673 37.908ZM7.0107 26.8093L7.40008 26.7177C6.53293 23.0309 6.61912 19.436 7.44375 16.6113C8.27209 13.774 9.81745 11.7909 11.808 11.1676L11.6884 10.7859L11.5689 10.4042C9.21477 11.1413 7.54053 13.4252 6.6758 16.3871C5.80737 19.3618 5.72701 23.0985 6.62133 26.9009L7.0107 26.8093ZM11.6884 10.7859L11.8079 11.1676C14.4255 10.3483 17.4127 12.0341 19.6878 15.5407L20.0234 15.323L20.359 15.1053C18.0203 11.5008 14.7152 9.41934 11.5689 10.4042L11.6884 10.7859ZM20.0234 15.323H20.4234V13.5212H20.0234H19.6234V15.323H20.0234ZM20.0234 13.5212L20.1586 13.1448C20.0312 13.099 19.9104 13.0516 19.7955 12.9978L19.6259 13.3601L19.4564 13.7224C19.6019 13.7905 19.7478 13.8473 19.8882 13.8977L20.0234 13.5212ZM19.6259 13.3601L19.7955 12.9978C19.0223 12.6359 18.3549 12.0397 17.8749 11.2745L17.5361 11.4871L17.1972 11.6996C17.755 12.5888 18.5373 13.2922 19.4564 13.7224L19.6259 13.3601ZM17.5361 11.4871L17.8749 11.2745C17.3948 10.5091 17.123 9.6082 17.0951 8.67723L16.6953 8.68921L16.2955 8.7012C16.3275 9.77094 16.6398 10.8109 17.1972 11.6996L17.5361 11.4871ZM16.6953 8.68921L17.0951 8.67727C17.0673 7.74607 17.2847 6.82624 17.7186 6.02764L17.3671 5.83667L17.0157 5.6457C16.5129 6.57112 16.2635 7.63135 16.2955 8.70115L16.6953 8.68921ZM17.3671 5.83667L17.7186 6.02768C18.1523 5.22968 18.7838 4.58714 19.5347 4.17089L19.3408 3.82105L19.1468 3.4712C18.2568 3.96458 17.5187 4.72017 17.0157 5.64567L17.3671 5.83667ZM19.3408 3.82105L19.5347 4.17092C20.2853 3.75496 21.1269 3.5807 21.9611 3.66623L22.0019 3.26831L22.0427 2.8704C21.0426 2.76787 20.0376 2.97759 19.1469 3.47118L19.3408 3.82105ZM18.3056 21.8113L18.696 21.7242C18.236 19.6625 17.3086 17.9225 16.1561 16.7827C15.0062 15.6455 13.5818 15.0664 12.1801 15.4825L12.2939 15.866L12.4077 16.2494C13.4327 15.9452 14.5676 16.3369 15.5935 17.3515C16.6169 18.3636 17.4819 19.9564 17.9152 21.8984L18.3056 21.8113ZM12.2939 15.866L12.18 15.4825C10.791 15.8951 9.80415 17.1741 9.27992 18.7887C8.75248 20.4132 8.66604 22.4451 9.12616 24.5077L9.51656 24.4207L9.90697 24.3336C9.47398 22.3926 9.56295 20.5075 10.0408 19.0358C10.5219 17.5541 11.3702 16.5576 12.4078 16.2494L12.2939 15.866ZM9.51656 24.4207L9.12616 24.5078C9.5861 26.5694 10.5136 28.3093 11.6661 29.449C12.816 30.5862 14.2403 31.1653 15.642 30.7494L15.5283 30.366L15.4145 29.9825C14.3896 30.2866 13.2546 29.8948 12.2286 28.8802C11.2052 27.8682 10.3402 26.2755 9.90697 24.3336L9.51656 24.4207ZM15.5283 30.366L15.6421 30.7494C17.0313 30.337 18.0182 29.058 18.5424 27.4434C19.0699 25.819 19.1562 23.7869 18.696 21.7242L18.3056 21.8113L17.9152 21.8984C18.3483 23.8395 18.2594 25.7246 17.7815 27.1964C17.3005 28.678 16.4521 29.6744 15.4144 29.9825L15.5283 30.366ZM29.6806 15.866L29.7944 15.4825C28.3928 15.0666 26.9688 15.6456 25.8191 16.7826C24.6668 17.9221 23.7395 19.6618 23.2795 21.7232L23.6699 21.8103L24.0603 21.8974C24.4936 19.9557 25.3585 18.3633 26.3816 17.3514C27.4073 16.337 28.542 15.9454 29.5668 16.2494L29.6806 15.866ZM23.6699 21.8103L23.2795 21.7232C22.8193 23.7858 22.9055 25.8178 23.4327 27.4422C23.9567 29.0568 24.9433 30.3359 26.3324 30.7484L26.4463 30.365L26.5601 29.9815C25.5226 29.6734 24.6745 28.6769 24.1936 27.1953C23.716 25.7235 23.6272 23.8385 24.0603 21.8974L23.6699 21.8103ZM26.4463 30.365L26.3324 30.7484C27.7342 31.1646 29.1585 30.5856 30.3085 29.4484C31.4609 28.3086 32.3884 26.5686 32.8484 24.5068L32.458 24.4197L32.0676 24.3326C31.6343 26.2747 30.7693 27.8675 29.7459 28.8796C28.72 29.8942 27.5851 30.2858 26.5601 29.9815L26.4463 30.365ZM32.458 24.4197L32.8484 24.5067C33.3084 22.4442 33.222 20.4124 32.6946 18.7881C32.1704 17.1737 31.1835 15.8949 29.7945 15.4825L29.6806 15.866L29.5668 16.2494C30.6044 16.5575 31.4526 17.5538 31.9337 19.0352C32.4115 20.5068 32.5005 22.3916 32.0676 24.3326L32.458 24.4197Z" fill="white" mask="url(#path-1-inside-1_32_36)"/>
<mask id="path-3-inside-2_32_36" fill="white">
<path d="M23.1562 7.20229H24.7148V8.39272H23.1562V10.6847H21.6475V8.39272H20V7.20229H21.6475V6.1017H23.1562V7.20229Z"/>
</mask>
<path d="M23.1562 7.20229H24.7148V8.39272H23.1562V10.6847H21.6475V8.39272H20V7.20229H21.6475V6.1017H23.1562V7.20229Z" fill="black"/>
<path d="M23.1562 7.20229H22.9562V7.40229H23.1562V7.20229ZM24.7148 7.20229H24.9148V7.00229H24.7148V7.20229ZM24.7148 8.39272V8.59272H24.9148V8.39272H24.7148ZM23.1562 8.39272V8.19272H22.9562V8.39272H23.1562ZM23.1562 10.6847V10.8847H23.3563V10.6847H23.1562ZM21.6475 10.6847H21.4475V10.8847H21.6475V10.6847ZM21.6475 8.39272H21.8475V8.19272H21.6475V8.39272ZM20 8.39272H19.8V8.59272H20V8.39272ZM20 7.20229V7.00229H19.8V7.20229H20ZM21.6475 7.20229V7.40229H21.8475V7.20229H21.6475ZM21.6475 6.1017V5.9017H21.4475V6.1017H21.6475ZM23.1562 6.1017H23.3563V5.9017H23.1562V6.1017ZM23.1562 7.20229V7.40229H24.7148V7.20229V7.00229H23.1562V7.20229ZM24.7148 7.20229H24.5148V8.39272H24.7148H24.9148V7.20229H24.7148ZM24.7148 8.39272V8.19272H23.1562V8.39272V8.59272H24.7148V8.39272ZM23.1562 8.39272H22.9562V10.6847H23.1562H23.3563V8.39272H23.1562ZM23.1562 10.6847V10.4847H21.6475V10.6847V10.8847H23.1562V10.6847ZM21.6475 10.6847H21.8475V8.39272H21.6475H21.4475V10.6847H21.6475ZM21.6475 8.39272V8.19272H20V8.39272V8.59272H21.6475V8.39272ZM20 8.39272H20.2V7.20229H20H19.8V8.39272H20ZM20 7.20229V7.40229H21.6475V7.20229V7.00229H20V7.20229ZM21.6475 7.20229H21.8475V6.1017H21.6475H21.4475V7.20229H21.6475ZM21.6475 6.1017V6.3017H23.1562V6.1017V5.9017H21.6475V6.1017ZM23.1562 6.1017H22.9562V7.20229H23.1562H23.3563V6.1017H23.1562Z" fill="white" mask="url(#path-3-inside-2_32_36)"/>
<rect x="8.6874" y="34.8764" width="24.6" height="3.05627" fill="black" stroke="white" stroke-width="0.4"/>
</svg>
