<svg width="40" height="40" viewBox="0 0 40 40" fill="none" xmlns="http://www.w3.org/2000/svg">
<g clip-path="url(#clip0_12_18)">
<mask id="path-1-inside-1_12_18" fill="white">
<path d="M34 36C34 33.6131 32.525 31.3239 29.8995 29.636C27.274 27.9482 23.713 27 20 27C16.287 27 12.726 27.9482 10.1005 29.636C7.475 31.3239 6 33.6131 6 36L20 36H34Z"/>
</mask>
<path d="M34 36C34 33.6131 32.525 31.3239 29.8995 29.636C27.274 27.9482 23.713 27 20 27C16.287 27 12.726 27.9482 10.1005 29.636C7.475 31.3239 6 33.6131 6 36L20 36H34Z" fill="black" stroke="white" mask="url(#path-1-inside-1_12_18)"/>
<path d="M20 12.25C24.2957 12.25 27.75 15.5109 27.75 19.5C27.75 23.4891 24.2957 26.75 20 26.75C15.7043 26.75 12.25 23.4891 12.25 19.5C12.25 15.5109 15.7043 12.25 20 12.25Z" fill="black" stroke="white" stroke-width="0.5"/>
<path d="M20 7.25C21.5634 7.25 22.75 8.2981 22.75 9.5C22.75 10.7019 21.5634 11.75 20 11.75C18.4366 11.75 17.25 10.7019 17.25 9.5C17.25 8.2981 18.4366 7.25 20 7.25Z" fill="black" stroke="white" stroke-width="0.5"/>
</g>
<defs>
<clipPath id="clip0_12_18">
<rect width="40" height="40" fill="white"/>
</clipPath>
</defs>
</svg>
