<svg width="40" height="40" viewBox="0 0 40 40" fill="none" xmlns="http://www.w3.org/2000/svg">
<mask id="path-1-inside-1_30_10" fill="white">
<path d="M22.0028 3.26835C22.9202 3.36285 24.4332 4.50428 25.161 5.11796L24.5213 6.11796C23.9946 5.67376 22.5411 4.78611 21.8768 4.71757C21.2128 4.64942 20.5442 4.7887 19.9501 5.11796C19.356 5.44716 18.8604 5.9531 18.5213 6.57694C18.1823 7.20088 18.0134 7.91722 18.035 8.6414C18.0567 9.36565 18.2678 10.069 18.6434 10.6678C19.019 11.2663 19.5438 11.7366 20.1561 12.0232C20.7686 12.3099 21.4439 12.4016 22.1024 12.2869C22.7609 12.1721 23.6773 11.367 24.1766 10.8865L25.161 11.4871C24.4713 12.1509 23.2241 13.5658 22.3143 13.7244C22.1936 13.7454 22.0723 13.7602 21.951 13.7713V15.3201C24.258 11.7663 27.4038 9.88449 30.285 10.7859C34.6299 12.1459 36.7241 19.3199 34.9628 26.8094C33.201 34.2986 28.2509 39.268 23.9061 37.908C22.7682 37.5517 21.7865 36.7952 20.9862 35.74C20.1859 36.7946 19.2049 37.5519 18.0672 37.908C13.7225 39.2673 8.77218 34.2984 7.01061 26.8094C5.24932 19.3203 7.34385 12.1464 11.6883 10.7859C14.5699 9.88409 17.7164 11.7664 20.0233 15.3211V13.5213C19.8895 13.4732 19.7559 13.421 19.6258 13.3601C18.7799 12.9641 18.0548 12.3141 17.536 11.4871C17.0173 10.6601 16.7261 9.68954 16.6962 8.68925C16.6663 7.68869 16.8986 6.69876 17.3671 5.83671C17.8355 4.97471 18.5209 4.27591 19.3417 3.82108C20.1624 3.36631 21.0856 3.17422 22.0028 3.26835ZM18.3055 21.8123C17.4123 17.8086 14.7205 15.1467 12.2938 15.867C9.86748 16.5879 8.62357 20.4173 9.51647 24.4207C10.4097 28.4241 13.1016 31.0859 15.5282 30.366C17.9548 29.6455 19.1984 25.8159 18.3055 21.8123ZM29.6805 15.866C27.2539 15.146 24.5621 17.8079 23.6688 21.8113C22.7758 25.8149 24.0197 29.6453 26.4462 30.366C28.8728 31.0862 31.5646 28.4241 32.4579 24.4207C33.3509 20.417 32.1072 16.5865 29.6805 15.866Z"/>
</mask>
<path d="M22.0028 3.26835C22.9202 3.36285 24.4332 4.50428 25.161 5.11796L24.5213 6.11796C23.9946 5.67376 22.5411 4.78611 21.8768 4.71757C21.2128 4.64942 20.5442 4.7887 19.9501 5.11796C19.356 5.44716 18.8604 5.9531 18.5213 6.57694C18.1823 7.20088 18.0134 7.91722 18.035 8.6414C18.0567 9.36565 18.2678 10.069 18.6434 10.6678C19.019 11.2663 19.5438 11.7366 20.1561 12.0232C20.7686 12.3099 21.4439 12.4016 22.1024 12.2869C22.7609 12.1721 23.6773 11.367 24.1766 10.8865L25.161 11.4871C24.4713 12.1509 23.2241 13.5658 22.3143 13.7244C22.1936 13.7454 22.0723 13.7602 21.951 13.7713V15.3201C24.258 11.7663 27.4038 9.88449 30.285 10.7859C34.6299 12.1459 36.7241 19.3199 34.9628 26.8094C33.201 34.2986 28.2509 39.268 23.9061 37.908C22.7682 37.5517 21.7865 36.7952 20.9862 35.74C20.1859 36.7946 19.2049 37.5519 18.0672 37.908C13.7225 39.2673 8.77218 34.2984 7.01061 26.8094C5.24932 19.3203 7.34385 12.1464 11.6883 10.7859C14.5699 9.88409 17.7164 11.7664 20.0233 15.3211V13.5213C19.8895 13.4732 19.7559 13.421 19.6258 13.3601C18.7799 12.9641 18.0548 12.3141 17.536 11.4871C17.0173 10.6601 16.7261 9.68954 16.6962 8.68925C16.6663 7.68869 16.8986 6.69876 17.3671 5.83671C17.8355 4.97471 18.5209 4.27591 19.3417 3.82108C20.1624 3.36631 21.0856 3.17422 22.0028 3.26835ZM18.3055 21.8123C17.4123 17.8086 14.7205 15.1467 12.2938 15.867C9.86748 16.5879 8.62357 20.4173 9.51647 24.4207C10.4097 28.4241 13.1016 31.0859 15.5282 30.366C17.9548 29.6455 19.1984 25.8159 18.3055 21.8123ZM29.6805 15.866C27.2539 15.146 24.5621 17.8079 23.6688 21.8113C22.7758 25.8149 24.0197 29.6453 26.4462 30.366C28.8728 31.0862 31.5646 28.4241 32.4579 24.4207C33.3509 20.417 32.1072 16.5865 29.6805 15.866Z" fill="white"/>
<path d="M22.0028 3.26835L22.0438 2.87046L22.0436 2.87044L22.0028 3.26835ZM25.161 5.11796L25.498 5.3335L25.6869 5.03816L25.4189 4.81216L25.161 5.11796ZM24.5213 6.11796L24.2635 6.42375L24.6124 6.71795L24.8583 6.3335L24.5213 6.11796ZM21.8768 4.71757L21.9179 4.31968L21.9177 4.31966L21.8768 4.71757ZM19.9501 5.11796L19.7562 4.76809L19.7562 4.76809L19.9501 5.11796ZM18.5213 6.57694L18.1699 6.38592L18.1699 6.38596L18.5213 6.57694ZM18.035 8.6414L17.6352 8.65331L17.6352 8.65336L18.035 8.6414ZM18.6434 10.6678L18.3046 10.8803L18.3046 10.8804L18.6434 10.6678ZM20.1561 12.0232L19.9865 12.3855L19.9866 12.3855L20.1561 12.0232ZM22.1024 12.2869L22.1711 12.681L22.1711 12.681L22.1024 12.2869ZM24.1766 10.8865L24.385 10.5451L24.1216 10.3844L23.8993 10.5983L24.1766 10.8865ZM25.161 11.4871L25.4384 11.7753L25.812 11.4157L25.3693 11.1456L25.161 11.4871ZM22.3143 13.7244L22.383 14.1185L22.383 14.1185L22.3143 13.7244ZM21.951 13.7713L21.9148 13.3729L21.551 13.406V13.7713H21.951ZM21.951 15.3201H21.551V16.671L22.2865 15.5379L21.951 15.3201ZM30.285 10.7859L30.4045 10.4042L30.4045 10.4042L30.285 10.7859ZM34.9628 26.8094L35.3521 26.901L35.3521 26.9009L34.9628 26.8094ZM23.9061 37.908L23.7866 38.2897L23.7866 38.2897L23.9061 37.908ZM20.9862 35.74L21.3049 35.4983L20.9863 35.0782L20.6675 35.4982L20.9862 35.74ZM18.0672 37.908L18.1867 38.2897L18.1867 38.2897L18.0672 37.908ZM7.01061 26.8094L6.62123 26.9009L6.62123 26.901L7.01061 26.8094ZM11.6883 10.7859L11.5689 10.4042L11.5688 10.4042L11.6883 10.7859ZM20.0233 15.3211L19.6878 15.5388L20.4233 16.6722V15.3211H20.0233ZM20.0233 13.5213H20.4233V13.24L20.1586 13.1448L20.0233 13.5213ZM19.6258 13.3601L19.4562 13.7224L19.4563 13.7224L19.6258 13.3601ZM17.536 11.4871L17.1971 11.6996L17.1972 11.6997L17.536 11.4871ZM16.6962 8.68925L16.2963 8.70119L16.2963 8.70123L16.6962 8.68925ZM17.3671 5.83671L17.0156 5.64571L17.0156 5.64573L17.3671 5.83671ZM19.3417 3.82108L19.1478 3.4712L19.1478 3.47121L19.3417 3.82108ZM18.3055 21.8123L18.6959 21.7252L18.6959 21.7252L18.3055 21.8123ZM12.2938 15.867L12.18 15.4835L12.1799 15.4835L12.2938 15.867ZM9.51647 24.4207L9.12606 24.5078L9.12607 24.5078L9.51647 24.4207ZM15.5282 30.366L15.642 30.7495L15.642 30.7495L15.5282 30.366ZM29.6805 15.866L29.7944 15.4825L29.7943 15.4825L29.6805 15.866ZM23.6688 21.8113L23.2784 21.7242L23.2784 21.7242L23.6688 21.8113ZM26.4462 30.366L26.3323 30.7494L26.3323 30.7495L26.4462 30.366ZM32.4579 24.4207L32.8483 24.5078L32.8483 24.5078L32.4579 24.4207ZM22.0028 3.26835L21.9618 3.66624C22.3168 3.70282 22.8534 3.96142 23.4373 4.33533C24.0021 4.69696 24.5479 5.12421 24.9031 5.42375L25.161 5.11796L25.4189 4.81216C25.0463 4.49803 24.4717 4.04773 23.8687 3.6616C23.2848 3.28774 22.6061 2.92838 22.0438 2.87046L22.0028 3.26835ZM25.161 5.11796L24.824 4.90242L24.1844 5.90242L24.5213 6.11796L24.8583 6.3335L25.498 5.3335L25.161 5.11796ZM24.5213 6.11796L24.7792 5.81216C24.4896 5.56794 23.9709 5.22091 23.4456 4.92764C23.1809 4.77982 22.9066 4.64121 22.6509 4.53397C22.4025 4.42975 22.1435 4.34296 21.9179 4.31968L21.8768 4.71757L21.8358 5.11546C21.9423 5.12645 22.1141 5.17632 22.3414 5.27169C22.5616 5.36403 22.8081 5.48796 23.0556 5.62614C23.5549 5.90488 24.0263 6.22378 24.2635 6.42375L24.5213 6.11796ZM21.8768 4.71757L21.9177 4.31966C21.1706 4.24299 20.4203 4.40007 19.7562 4.76809L19.9501 5.11796L20.1439 5.46783C20.6682 5.17734 21.255 5.05586 21.836 5.11548L21.8768 4.71757ZM19.9501 5.11796L19.7562 4.76809C19.0925 5.13587 18.5436 5.69835 18.1699 6.38592L18.5213 6.57694L18.8728 6.76797C19.1772 6.20784 19.6195 5.75845 20.144 5.46782L19.9501 5.11796ZM18.5213 6.57694L18.1699 6.38596C17.7964 7.07331 17.6116 7.85985 17.6352 8.65331L18.035 8.6414L18.4348 8.62948C18.4153 7.97459 18.5682 7.32844 18.8728 6.76792L18.5213 6.57694ZM18.035 8.6414L17.6352 8.65336C17.6589 9.44681 17.8902 10.2197 18.3046 10.8803L18.6434 10.6678L18.9823 10.4552C18.6455 9.91826 18.4544 9.28448 18.4348 8.62944L18.035 8.6414ZM18.6434 10.6678L18.3046 10.8804C18.7191 11.541 19.3013 12.0647 19.9865 12.3855L20.1561 12.0232L20.3257 11.661C19.7862 11.4084 19.3189 10.9917 18.9822 10.4552L18.6434 10.6678ZM20.1561 12.0232L19.9866 12.3855C20.6722 12.7064 21.4306 12.81 22.1711 12.681L22.1024 12.2869L22.0337 11.8928C21.4572 11.9933 20.865 11.9133 20.3257 11.6609L20.1561 12.0232ZM22.1024 12.2869L22.1711 12.681C22.599 12.6064 23.0571 12.3257 23.4366 12.0458C23.8303 11.7554 24.1984 11.4207 24.454 11.1747L24.1766 10.8865L23.8993 10.5983C23.6556 10.8328 23.3158 11.1409 22.9618 11.4019C22.5937 11.6734 22.2644 11.8526 22.0337 11.8929L22.1024 12.2869ZM24.1766 10.8865L23.9683 11.228L24.9527 11.8286L25.161 11.4871L25.3693 11.1456L24.385 10.5451L24.1766 10.8865ZM25.161 11.4871L24.8836 11.1989C24.5122 11.5564 24.0623 12.0431 23.5539 12.4967C23.3059 12.7179 23.0603 12.9156 22.8287 13.0654C22.5927 13.218 22.3967 13.304 22.2456 13.3303L22.3143 13.7244L22.383 14.1185C22.6868 14.0655 22.9879 13.9151 23.2631 13.7371C23.5428 13.5562 23.8227 13.3289 24.0864 13.0937C24.6015 12.6342 25.1201 12.0816 25.4384 11.7753L25.161 11.4871ZM22.3143 13.7244L22.2457 13.3303C22.1382 13.3491 22.028 13.3626 21.9148 13.3729L21.951 13.7713L21.9873 14.1696C22.1166 14.1579 22.2491 14.1418 22.383 14.1185L22.3143 13.7244ZM21.951 13.7713H21.551V15.3201H21.951H22.351V13.7713H21.951ZM21.951 15.3201L22.2865 15.5379C24.5616 12.0331 27.5485 10.3489 30.1656 11.1677L30.285 10.7859L30.4045 10.4042C27.2591 9.4201 23.9543 11.4994 21.6155 15.1023L21.951 15.3201ZM30.285 10.7859L30.1655 11.1677C32.1561 11.7908 33.7015 13.7738 34.5298 16.6112C35.3544 19.4359 35.4405 23.0308 34.5734 26.7178L34.9628 26.8094L35.3521 26.9009C36.2464 23.0985 36.1661 19.3617 35.2977 16.387C34.433 13.425 32.7588 11.1411 30.4045 10.4042L30.285 10.7859ZM34.9628 26.8094L34.5734 26.7178C33.7059 30.4057 32.0581 33.4491 30.1197 35.3948C28.1769 37.3451 26.0015 38.1447 24.0256 37.5263L23.9061 37.908L23.7866 38.2897C26.1556 39.0312 28.6276 38.0262 30.6865 35.9594C32.7498 33.8882 34.4579 30.7023 35.3521 26.901L34.9628 26.8094ZM23.9061 37.908L24.0256 37.5263C22.9826 37.1997 22.0658 36.5015 21.3049 35.4983L20.9862 35.74L20.6675 35.9818C21.5072 37.0888 22.5538 37.9037 23.7866 38.2897L23.9061 37.908ZM20.9862 35.74L20.6675 35.4982C19.9065 36.5012 18.9904 37.1999 17.9478 37.5263L18.0672 37.908L18.1867 38.2897C19.4195 37.9039 20.4653 37.0881 21.3048 35.9818L20.9862 35.74ZM18.0672 37.908L17.9478 37.5262C15.9719 38.1444 13.7965 37.3447 11.8536 35.3945C9.91523 33.4488 8.26742 30.4056 7.39998 26.7178L7.01061 26.8094L6.62123 26.901C7.51536 30.7022 9.2235 33.888 11.2869 35.9591C13.3457 38.0258 15.8178 39.0309 18.1867 38.2897L18.0672 37.908ZM7.01061 26.8094L7.39998 26.7178C6.53293 23.031 6.61915 19.4361 7.44378 16.6115C8.27213 13.7741 9.81744 11.7909 11.8079 11.1677L11.6883 10.7859L11.5688 10.4042C9.21475 11.1414 7.54056 13.4253 6.67584 16.3873C5.8074 19.362 5.727 23.0986 6.62123 26.9009L7.01061 26.8094ZM11.6883 10.7859L11.8078 11.1677C14.4251 10.3485 17.4127 12.0332 19.6878 15.5388L20.0233 15.3211L20.3588 15.1033C18.0201 11.4995 14.7146 9.41967 11.5689 10.4042L11.6883 10.7859ZM20.0233 15.3211H20.4233V13.5213H20.0233H19.6233V15.3211H20.0233ZM20.0233 13.5213L20.1586 13.1448C20.0312 13.0991 19.9102 13.0516 19.7954 12.9979L19.6258 13.3601L19.4563 13.7224C19.6017 13.7905 19.7478 13.8473 19.888 13.8977L20.0233 13.5213ZM19.6258 13.3601L19.7954 12.9979C19.0224 12.636 18.3548 12.0396 17.8748 11.2745L17.536 11.4871L17.1972 11.6997C17.7549 12.5887 18.5373 13.2922 19.4562 13.7224L19.6258 13.3601ZM17.536 11.4871L17.8749 11.2746C17.395 10.5094 17.1239 9.60842 17.096 8.67727L16.6962 8.68925L16.2963 8.70123C16.3284 9.77066 16.6396 10.8107 17.1971 11.6996L17.536 11.4871ZM16.6962 8.68925L17.096 8.67731C17.0682 7.74577 17.2847 6.82608 17.7185 6.02769L17.3671 5.83671L17.0156 5.64573C16.5126 6.57143 16.2644 7.63161 16.2963 8.70119L16.6962 8.68925ZM17.3671 5.83671L17.7185 6.02771C18.1522 5.22962 18.7843 4.58728 19.5355 4.17096L19.3417 3.82108L19.1478 3.47121C18.2576 3.96453 17.5188 4.71981 17.0156 5.64571L17.3671 5.83671ZM19.3417 3.82108L19.5355 4.17096C20.2863 3.75498 21.1277 3.58064 21.962 3.66626L22.0028 3.26835L22.0436 2.87044C21.0434 2.76779 20.0385 2.97764 19.1478 3.4712L19.3417 3.82108ZM18.3055 21.8123L18.6959 21.7252C18.236 19.6635 17.3085 17.9234 16.156 16.7837C15.0061 15.6465 13.5818 15.0674 12.18 15.4835L12.2938 15.867L12.4076 16.2504C13.4326 15.9462 14.5675 16.3379 15.5935 17.3525C16.6168 18.3646 17.4819 19.9574 17.9151 21.8994L18.3055 21.8123ZM12.2938 15.867L12.1799 15.4835C10.7911 15.8962 9.80423 17.175 9.27999 18.7894C8.75254 20.4136 8.66605 22.4453 9.12606 24.5078L9.51647 24.4207L9.90687 24.3336C9.47399 22.3927 9.56301 20.508 10.0409 19.0364C10.5219 17.555 11.3702 16.5587 12.4077 16.2504L12.2938 15.867ZM9.51647 24.4207L9.12607 24.5078C9.58604 26.5694 10.5136 28.3093 11.6661 29.449C12.816 30.5862 14.2403 31.1653 15.642 30.7495L15.5282 30.366L15.4144 29.9825C14.3895 30.2866 13.2546 29.8948 12.2286 28.8802C11.2052 27.8681 10.3401 26.2754 9.90687 24.3336L9.51647 24.4207ZM15.5282 30.366L15.642 30.7495C17.0311 30.3371 18.0179 29.0583 18.5421 27.4439C19.0696 25.8196 19.156 23.7878 18.6959 21.7252L18.3055 21.8123L17.9151 21.8994C18.348 23.8404 18.2591 25.7252 17.7813 27.1968C17.3002 28.6782 16.452 29.6745 15.4143 29.9825L15.5282 30.366ZM29.6805 15.866L29.7943 15.4825C28.3926 15.0666 26.9683 15.6458 25.8184 16.783C24.6659 17.9227 23.7384 19.6627 23.2784 21.7242L23.6688 21.8113L24.0592 21.8984C24.4925 19.9566 25.3575 18.3639 26.3809 17.3518C27.4069 16.3372 28.5418 15.9454 29.5668 16.2495L29.6805 15.866ZM23.6688 21.8113L23.2784 21.7242C22.8184 23.7868 22.9048 25.8188 23.4322 27.4432C23.9565 29.0578 24.9433 30.3369 26.3323 30.7494L26.4462 30.366L26.56 29.9826C25.5225 29.6744 24.6742 28.6779 24.1931 27.1962C23.7153 25.7244 23.6263 23.8394 24.0592 21.8984L23.6688 21.8113ZM26.4462 30.366L26.3323 30.7495C27.7341 31.1655 29.1584 30.5863 30.3083 29.4491C31.4608 28.3094 32.3883 26.5694 32.8483 24.5078L32.4579 24.4207L32.0675 24.3336C31.6342 26.2755 30.7691 27.8682 29.7457 28.8803C28.7198 29.8949 27.5849 30.2867 26.56 29.9825L26.4462 30.366ZM32.4579 24.4207L32.8483 24.5078C33.3084 22.4451 33.222 20.4131 32.6946 18.7886C32.1704 17.174 31.1835 15.895 29.7944 15.4825L29.6805 15.866L29.5667 16.2495C30.6043 16.5575 31.4526 17.554 31.9337 19.0356C32.4115 20.5075 32.5004 22.3925 32.0675 24.3336L32.4579 24.4207Z" fill="black" mask="url(#path-1-inside-1_30_10)"/>
<mask id="path-3-inside-2_30_10" fill="white">
<path d="M23.1562 7.20229H24.7148V8.39272H23.1562V10.6847H21.6475V8.39272H20V7.20229H21.6475V6.1017H23.1562V7.20229Z"/>
</mask>
<path d="M23.1562 7.20229H24.7148V8.39272H23.1562V10.6847H21.6475V8.39272H20V7.20229H21.6475V6.1017H23.1562V7.20229Z" fill="white"/>
<path d="M23.1562 7.20229H22.9562V7.40229H23.1562V7.20229ZM24.7148 7.20229H24.9148V7.00229H24.7148V7.20229ZM24.7148 8.39272V8.59272H24.9148V8.39272H24.7148ZM23.1562 8.39272V8.19272H22.9562V8.39272H23.1562ZM23.1562 10.6847V10.8847H23.3563V10.6847H23.1562ZM21.6475 10.6847H21.4475V10.8847H21.6475V10.6847ZM21.6475 8.39272H21.8475V8.19272H21.6475V8.39272ZM20 8.39272H19.8V8.59272H20V8.39272ZM20 7.20229V7.00229H19.8V7.20229H20ZM21.6475 7.20229V7.40229H21.8475V7.20229H21.6475ZM21.6475 6.1017V5.9017H21.4475V6.1017H21.6475ZM23.1562 6.1017H23.3563V5.9017H23.1562V6.1017ZM23.1562 7.20229V7.40229H24.7148V7.20229V7.00229H23.1562V7.20229ZM24.7148 7.20229H24.5148V8.39272H24.7148H24.9148V7.20229H24.7148ZM24.7148 8.39272V8.19272H23.1562V8.39272V8.59272H24.7148V8.39272ZM23.1562 8.39272H22.9562V10.6847H23.1562H23.3563V8.39272H23.1562ZM23.1562 10.6847V10.4847H21.6475V10.6847V10.8847H23.1562V10.6847ZM21.6475 10.6847H21.8475V8.39272H21.6475H21.4475V10.6847H21.6475ZM21.6475 8.39272V8.19272H20V8.39272V8.59272H21.6475V8.39272ZM20 8.39272H20.2V7.20229H20H19.8V8.39272H20ZM20 7.20229V7.40229H21.6475V7.20229V7.00229H20V7.20229ZM21.6475 7.20229H21.8475V6.1017H21.6475H21.4475V7.20229H21.6475ZM21.6475 6.1017V6.3017H23.1562V6.1017V5.9017H21.6475V6.1017ZM23.1562 6.1017H22.9562V7.20229H23.1562H23.3563V6.1017H23.1562Z" fill="black" mask="url(#path-3-inside-2_30_10)"/>
<rect x="8.6874" y="34.8764" width="24.6" height="3.05627" fill="white" stroke="black" stroke-width="0.4"/>
</svg>
