<svg width="40" height="40" viewBox="0 0 40 40" fill="none" xmlns="http://www.w3.org/2000/svg">
<g id="Frame 1">
<rect id="Rectangle 1" x="11" y="30" width="18" height="5" rx="2" fill="white"/>
<rect id="Rectangle 2" x="16" y="20" width="7" height="10" fill="white"/>
<g id="Subtract" filter="url(#filter0_d_1_2)">
<path d="M19.5 7C21.6194 7 23.5563 7.68631 25.0449 8.81836L21.6758 10.7646L22.8037 12.7178L26.6748 10.4814C27.5125 11.6434 28 13.0209 28 14.5C28 18.6421 24.1944 22 19.5 22C14.8056 22 11 18.6421 11 14.5C11 10.3579 14.8056 7 19.5 7Z" fill="white"/>
</g>
<rect id="Rectangle 4" x="14" y="6.21672" width="2.77554" height="3.04415" rx="1" transform="rotate(-26 14 6.21672)" fill="white"/>
</g>
<defs>
<filter id="filter0_d_1_2" x="7" y="7" width="25" height="23" filterUnits="userSpaceOnUse" color-interpolation-filters="sRGB">
<feFlood flood-opacity="0" result="BackgroundImageFix"/>
<feColorMatrix in="SourceAlpha" type="matrix" values="0 0 0 0 0 0 0 0 0 0 0 0 0 0 0 0 0 0 127 0" result="hardAlpha"/>
<feOffset dy="4"/>
<feGaussianBlur stdDeviation="2"/>
<feComposite in2="hardAlpha" operator="out"/>
<feColorMatrix type="matrix" values="0 0 0 0 0 0 0 0 0 0 0 0 0 0 0 0 0 0 0.22 0"/>
<feBlend mode="normal" in2="BackgroundImageFix" result="effect1_dropShadow_1_2"/>
<feBlend mode="normal" in="SourceGraphic" in2="effect1_dropShadow_1_2" result="shape"/>
</filter>
</defs>
</svg>
